<svg width="180" height="56" viewBox="0 0 180 56" fill="none" xmlns="http://www.w3.org/2000/svg">
  <rect width="180" height="56" rx="10" fill="#050505"/>
  <path d="M34.5 42C31 36.5 31.4 28.2 36.8 22.9C40.5 19.2 45.6 17.6 50.4 18.3C47.2 20.2 45.3 23.1 44.7 26.5C44 30.5 45.1 34.7 48 37.8C43.4 38.1 39.5 40 36.6 43.3L34.5 42Z" fill="#D4AF37"/>
  <path d="M52.7 15.2C57.6 19.4 59.8 26.3 57.9 32.5C56.5 36.9 53.2 40.3 49.2 42.1C50.9 39 50.9 35.5 49.7 32.4C48.2 28.8 45.1 26.1 41.3 25C44.8 21.7 46.6 17.3 46.3 12.8L48.9 12L52.7 15.2Z" fill="#B8932E"/>
  <path d="M62 21.4C63.4 28 60.9 35.3 54.6 39.2C50.1 42 44.7 42.3 39.9 40.8C43.5 40 46.4 37.9 48.2 35C50.3 31.6 50.8 27.3 49.2 23.3C53.6 24.8 58.3 24.4 62.5 21.9L62 21.4Z" fill="#F2D06B"/>
  <text x="74" y="31" fill="#F3D06A" font-family="Inter, Arial, sans-serif" font-size="18" font-weight="700" letter-spacing="2">PHOENIX</text>
  <text x="74" y="44" fill="#BFA15A" font-family="Inter, Arial, sans-serif" font-size="8" letter-spacing="2">CORPORATE</text>
</svg>
